<svg xmlns="http://www.w3.org/2000/svg" version="1.1" xmlns:xlink="http://www.w3.org/1999/xlink" width="512" height="512" x="0" y="0" viewBox="0 0 512 512" style="enable-background:new 0 0 512 512" xml:space="preserve" class=""><g><path d="M391.531 173.803c-4.16-4.16-10.923-4.16-15.083 0L234.667 315.584l-77.803-77.781c-4.16-4.16-10.923-4.16-15.083 0s-4.16 10.923 0 15.083l85.333 85.333a10.716 10.716 0 0 0 7.552 3.115c2.731 0 5.461-1.045 7.531-3.115L391.53 188.886c4.161-4.161 4.161-10.923.001-15.083z" fill="#61553e" opacity="1" data-original="#000000"></path><path d="m472.384 64.448-213.333-64a10.69 10.69 0 0 0-6.123 0l-213.333 64C35.093 65.792 32 69.952 32 74.667v234.667c0 94.336 143.829 178.24 220.843 202.197 1.024.32 2.091.469 3.157.469s2.133-.149 3.157-.469C336.171 487.552 480 403.669 480 309.333V74.667c0-4.715-3.093-8.854-7.616-10.219zm-13.717 244.885c0 74.901-118.677 153.664-202.667 180.821-83.989-27.157-202.667-105.92-202.667-180.821V82.603L256 21.803l202.667 60.8v226.73z" fill="#61553e" opacity="1" data-original="#000000"></path></g></svg>